STARTFONT 2.1
FONT -Adobe-Helvetica-Bold-R-Narrow--19-140-100-100-P-88-ISO8859-1
SIZE 14 100 100
FONTBOUNDINGBOX 17 19 -2 -5

STARTPROPERTIES 26
_DEC_DEVICE_FONTNAMES "PS=Helvetica-Narrow-Bold"
FONTNAME_REGISTRY ""
FAMILY_NAME "Helvetica"
FOUNDRY "Adobe"
WEIGHT_NAME "Bold"
SLANT "R"
SETWIDTH_NAME "Narrow"
ADD_STYLE_NAME ""
PIXEL_SIZE 19
POINT_SIZE 140
RESOLUTION_X 100
RESOLUTION_Y 100
SPACING "P"
AVERAGE_WIDTH 88
CHARSET_REGISTRY "ISO8859"
CHARSET_ENCODING "1"
CHARSET_COLLECTIONS "ASCII ISO8859-1 ADOBE-STANDARD"
FULL_NAME "Helvetica Narrow Bold"
COPYRIGHT "Copyright (c) 1991 Adobe Systems, Inc."
CAP_HEIGHT 14
X_HEIGHT 10
WEIGHT 10
QUAD_WIDTH 10
DEFAULT_CHAR 0
FONT_DESCENT 5
FONT_ASCENT 14
ENDPROPERTIES

CHARS 190

STARTCHAR space
ENCODING 32
SWIDTH 228 0
DWIDTH 4 0
BBX 1 1 0 0
BITMAP
00
ENDCHAR

STARTCHAR exclam
ENCODING 33
SWIDTH 273 0
DWIDTH 5 0
BBX 2 14 1 0
BITMAP
C0
C0
C0
C0
C0
C0
C0
C0
C0
C0
00
C0
C0
C0
ENDCHAR

STARTCHAR quotedbl
ENCODING 34
SWIDTH 389 0
DWIDTH 8 0
BBX 6 5 1 9
BITMAP
CC
CC
CC
CC
CC
ENDCHAR

STARTCHAR numbersign
ENCODING 35
SWIDTH 456 0
DWIDTH 9 0
BBX 9 14 0 0
BITMAP
1B00
1B00
1B00
1B00
7F80
7F80
3600
3600
FF00
FF00
6C00
6C00
6C00
6C00
ENDCHAR

STARTCHAR dollar
ENCODING 36
SWIDTH 456 0
DWIDTH 9 0
BBX 8 16 0 -2
BITMAP
18
7E
FF
DB
DB
D8
F8
7E
1F
1B
DB
DB
FF
7E
18
18
ENDCHAR

STARTCHAR percent
ENCODING 37
SWIDTH 729 0
DWIDTH 13 0
BBX 12 14 0 0
BITMAP
70C0
F8C0
D980
D980
FB00
7300
0600
0600
0CE0
0DF0
19B0
19B0
31F0
30E0
ENDCHAR

STARTCHAR ampersand
ENCODING 38
SWIDTH 592 0
DWIDTH 11 0
BBX 10 14 0 0
BITMAP
1C00
3E00
7700
6300
6700
3E00
3C00
7CC0
EEC0
E7C0
E380
F780
7FC0
3DC0
ENDCHAR

STARTCHAR quoteright
ENCODING 39
SWIDTH 228 0
DWIDTH 4 0
BBX 3 6 0 8
BITMAP
60
60
60
20
60
C0
ENDCHAR

STARTCHAR parenleft
ENCODING 40
SWIDTH 273 0
DWIDTH 6 0
BBX 5 18 1 -4
BITMAP
18
38
30
70
60
E0
E0
E0
E0
E0
E0
E0
E0
60
70
30
38
18
ENDCHAR

STARTCHAR parenright
ENCODING 41
SWIDTH 273 0
DWIDTH 6 0
BBX 5 18 0 -4
BITMAP
C0
E0
60
70
30
38
38
38
38
38
38
38
38
30
70
60
E0
C0
ENDCHAR

STARTCHAR asterisk
ENCODING 42
SWIDTH 319 0
DWIDTH 7 0
BBX 6 6 0 8
BITMAP
30
FC
FC
78
FC
CC
ENDCHAR

STARTCHAR plus
ENCODING 43
SWIDTH 479 0
DWIDTH 9 0
BBX 8 8 0 1
BITMAP
18
18
18
FF
FF
18
18
18
ENDCHAR

STARTCHAR comma
ENCODING 44
SWIDTH 228 0
DWIDTH 4 0
BBX 3 6 0 -3
BITMAP
60
60
60
20
60
C0
ENDCHAR

STARTCHAR minus
ENCODING 45
SWIDTH 479 0
DWIDTH 11 0
BBX 8 2 1 4
BITMAP
FF
FF
ENDCHAR

STARTCHAR period
ENCODING 46
SWIDTH 228 0
DWIDTH 4 0
BBX 2 3 1 0
BITMAP
C0
C0
C0
ENDCHAR

STARTCHAR slash
ENCODING 47
SWIDTH 228 0
DWIDTH 6 0
BBX 6 19 -1 -5
BITMAP
0C
0C
0C
0C
18
18
18
18
30
30
30
30
60
60
60
60
C0
C0
C0
ENDCHAR

STARTCHAR zero
ENCODING 48
SWIDTH 456 0
DWIDTH 9 0
BBX 7 14 1 0
BITMAP
7C
FE
EE
EE
EE
EE
EE
EE
EE
EE
EE
EE
FE
7C
ENDCHAR

STARTCHAR one
ENCODING 49
SWIDTH 456 0
DWIDTH 9 0
BBX 5 14 1 0
BITMAP
18
38
F8
F8
38
38
38
38
38
38
38
38
38
38
ENDCHAR

STARTCHAR two
ENCODING 50
SWIDTH 456 0
DWIDTH 9 0
BBX 7 14 1 0
BITMAP
7C
FE
EE
EE
0E
1E
1C
3C
78
70
F0
E0
FE
FE
ENDCHAR

STARTCHAR three
ENCODING 51
SWIDTH 456 0
DWIDTH 9 0
BBX 7 14 1 0
BITMAP
7C
FE
EE
EE
0E
0E
3C
3C
0E
0E
EE
EE
FE
7C
ENDCHAR

STARTCHAR four
ENCODING 52
SWIDTH 456 0
DWIDTH 9 0
BBX 8 14 1 0
BITMAP
0E
1E
1E
3E
3E
6E
6E
CE
CE
FF
FF
0E
0E
0E
ENDCHAR

STARTCHAR five
ENCODING 53
SWIDTH 456 0
DWIDTH 9 0
BBX 7 14 1 0
BITMAP
FE
FE
E0
E0
E0
FC
FE
CE
0E
0E
EE
EE
FE
7C
ENDCHAR

STARTCHAR six
ENCODING 54
SWIDTH 456 0
DWIDTH 9 0
BBX 7 14 1 0
BITMAP
7C
FE
EE
EE
E0
E0
FC
FE
EE
EE
EE
EE
FE
7C
ENDCHAR

STARTCHAR seven
ENCODING 55
SWIDTH 456 0
DWIDTH 9 0
BBX 7 14 1 0
BITMAP
FE
FE
0E
0C
1C
18
38
38
30
70
70
70
70
70
ENDCHAR

STARTCHAR eight
ENCODING 56
SWIDTH 456 0
DWIDTH 9 0
BBX 7 14 1 0
BITMAP
7C
FE
EE
EE
EE
7C
38
7C
FE
EE
EE
EE
FE
7C
ENDCHAR

STARTCHAR nine
ENCODING 57
SWIDTH 456 0
DWIDTH 9 0
BBX 7 14 1 0
BITMAP
7C
FE
EE
EE
EE
EE
FE
7E
0E
0E
EE
EE
FE
7C
ENDCHAR

STARTCHAR colon
ENCODING 58
SWIDTH 273 0
DWIDTH 5 0
BBX 2 10 1 0
BITMAP
C0
C0
C0
00
00
00
00
C0
C0
C0
ENDCHAR

STARTCHAR semicolon
ENCODING 59
SWIDTH 273 0
DWIDTH 5 0
BBX 3 13 0 -3
BITMAP
60
60
60
00
00
00
00
60
60
60
20
60
C0
ENDCHAR

STARTCHAR less
ENCODING 60
SWIDTH 479 0
DWIDTH 9 0
BBX 8 8 0 1
BITMAP
03
0F
3C
F0
F0
3C
0F
03
ENDCHAR

STARTCHAR equal
ENCODING 61
SWIDTH 479 0
DWIDTH 9 0
BBX 7 6 1 2
BITMAP
FE
FE
00
00
FE
FE
ENDCHAR

STARTCHAR greater
ENCODING 62
SWIDTH 479 0
DWIDTH 9 0
BBX 8 8 0 1
BITMAP
C0
F0
3C
0F
0F
3C
F0
C0
ENDCHAR

STARTCHAR question
ENCODING 63
SWIDTH 501 0
DWIDTH 9 0
BBX 7 14 1 0
BITMAP
7C
FE
EE
EE
0E
1C
18
38
30
30
00
30
30
30
ENDCHAR

STARTCHAR at
ENCODING 64
SWIDTH 800 0
DWIDTH 16 0
BBX 15 17 0 -3
BITMAP
07E0
1FF8
3C1C
700C
6366
E7E6
C666
CCC6
CCC6
CCC6
CDCC
CFFC
E770
6000
7800
3FE0
0FC0
ENDCHAR

STARTCHAR A
ENCODING 65
SWIDTH 592 0
DWIDTH 11 0
BBX 11 14 0 0
BITMAP
0E00
0E00
0E00
1F00
1F00
1B00
3B80
3B80
3180
7FC0
7FC0
71C0
E0E0
E0E0
ENDCHAR

STARTCHAR B
ENCODING 66
SWIDTH 592 0
DWIDTH 10 0
BBX 8 14 1 0
BITMAP
FE
FF
E7
E7
E7
E6
FC
FE
E7
E7
E7
E7
FF
FE
ENDCHAR

STARTCHAR C
ENCODING 67
SWIDTH 592 0
DWIDTH 11 0
BBX 10 14 1 0
BITMAP
1E00
7F00
7380
E380
E380
E000
E000
E000
E000
E380
E380
7380
7F00
1E00
ENDCHAR

STARTCHAR D
ENCODING 68
SWIDTH 592 0
DWIDTH 11 0
BBX 9 14 1 0
BITMAP
FC00
FF00
E700
E380
E380
E380
E380
E380
E380
E380
E380
E700
FF00
FC00
ENDCHAR

STARTCHAR E
ENCODING 69
SWIDTH 547 0
DWIDTH 10 0
BBX 8 14 1 0
BITMAP
FF
FF
E0
E0
E0
E0
FE
FE
E0
E0
E0
E0
FF
FF
ENDCHAR

STARTCHAR F
ENCODING 70
SWIDTH 501 0
DWIDTH 9 0
BBX 7 14 2 0
BITMAP
FE
FE
E0
E0
E0
E0
FC
FC
E0
E0
E0
E0
E0
E0
ENDCHAR

STARTCHAR G
ENCODING 71
SWIDTH 638 0
DWIDTH 12 0
BBX 10 14 1 0
BITMAP
1E00
7F80
7380
E1C0
E1C0
E000
E000
E7C0
E7C0
E1C0
E1C0
73C0
7FC0
1EC0
ENDCHAR

STARTCHAR H
ENCODING 72
SWIDTH 592 0
DWIDTH 11 0
BBX 9 14 1 0
BITMAP
E380
E380
E380
E380
E380
E380
FF80
FF80
E380
E380
E380
E380
E380
E380
ENDCHAR

STARTCHAR I
ENCODING 73
SWIDTH 228 0
DWIDTH 7 0
BBX 3 14 2 0
BITMAP
E0
E0
E0
E0
E0
E0
E0
E0
E0
E0
E0
E0
E0
E0
ENDCHAR

STARTCHAR J
ENCODING 74
SWIDTH 456 0
DWIDTH 9 0
BBX 7 14 1 0
BITMAP
0E
0E
0E
0E
0E
0E
0E
0E
0E
EE
EE
EE
FE
7C
ENDCHAR

STARTCHAR K
ENCODING 75
SWIDTH 592 0
DWIDTH 10 0
BBX 8 14 1 0
BITMAP
E3
E7
E6
EE
EC
FC
F8
F8
FC
FC
EE
EE
E7
E7
ENDCHAR

STARTCHAR L
ENCODING 76
SWIDTH 501 0
DWIDTH 8 0
BBX 7 14 1 0
BITMAP
E0
E0
E0
E0
E0
E0
E0
E0
E0
E0
E0
E0
FE
FE
ENDCHAR

STARTCHAR M
ENCODING 77
SWIDTH 683 0
DWIDTH 14 0
BBX 12 14 1 0
BITMAP
E070
E070
F0F0
F0F0
F0F0
F9F0
F9F0
FFF0
EF70
EF70
EF70
E670
E670
E670
ENDCHAR

STARTCHAR N
ENCODING 78
SWIDTH 592 0
DWIDTH 11 0
BBX 9 14 1 0
BITMAP
E380
E380
F380
F380
F380
FB80
FB80
EF80
EF80
E780
E780
E780
E380
E380
ENDCHAR

STARTCHAR O
ENCODING 79
SWIDTH 638 0
DWIDTH 12 0
BBX 10 14 1 0
BITMAP
1E00
7F80
7380
E1C0
E1C0
E1C0
E1C0
E1C0
E1C0
E1C0
E1C0
7380
7F80
1E00
ENDCHAR

STARTCHAR P
ENCODING 80
SWIDTH 547 0
DWIDTH 10 0
BBX 9 14 1 0
BITMAP
FE00
FF00
E780
E380
E380
E780
FF00
FE00
E000
E000
E000
E000
E000
E000
ENDCHAR

STARTCHAR Q
ENCODING 81
SWIDTH 638 0
DWIDTH 12 0
BBX 10 14 1 0
BITMAP
1E00
7F80
7380
E1C0
E1C0
E1C0
E1C0
E1C0
E1C0
E1C0
E7C0
7380
7FC0
1EC0
ENDCHAR

STARTCHAR R
ENCODING 82
SWIDTH 592 0
DWIDTH 11 0
BBX 9 14 1 0
BITMAP
FE00
FF00
E780
E380
E380
E780
FF00
FE00
E700
E300
E380
E380
E380
E380
ENDCHAR

STARTCHAR S
ENCODING 83
SWIDTH 547 0
DWIDTH 10 0
BBX 9 14 0 0
BITMAP
3F00
7F80
7380
7380
7000
7800
3E00
1F00
0780
0380
E380
E380
7F00
3E00
ENDCHAR

STARTCHAR T
ENCODING 84
SWIDTH 501 0
DWIDTH 9 0
BBX 9 14 0 0
BITMAP
FF80
FF80
1C00
1C00
1C00
1C00
1C00
1C00
1C00
1C00
1C00
1C00
1C00
1C00
ENDCHAR

STARTCHAR U
ENCODING 85
SWIDTH 592 0
DWIDTH 11 0
BBX 9 14 1 0
BITMAP
E380
E380
E380
E380
E380
E380
E380
E380
E380
E380
E380
E380
7F00
3E00
ENDCHAR

STARTCHAR V
ENCODING 86
SWIDTH 547 0
DWIDTH 11 0
BBX 11 14 0 0
BITMAP
E0E0
E0E0
60C0
71C0
71C0
3180
3B80
3B80
1B00
1F00
1F00
0E00
0E00
0E00
ENDCHAR

STARTCHAR W
ENCODING 87
SWIDTH 774 0
DWIDTH 15 0
BBX 15 14 0 0
BITMAP
E38E
E38E
E38E
739C
77DC
77DC
76DC
3EF8
3EF8
3EF8
3C78
1C70
1C70
1C70
ENDCHAR

STARTCHAR X
ENCODING 88
SWIDTH 547 0
DWIDTH 11 0
BBX 9 14 1 0
BITMAP
E380
E380
7700
7700
3E00
3E00
3C00
1E00
3E00
3E00
7700
6700
E380
E380
ENDCHAR

STARTCHAR Y
ENCODING 89
SWIDTH 547 0
DWIDTH 11 0
BBX 11 14 0 0
BITMAP
E0E0
71C0
71C0
3B80
3B80
1F00
1F00
0E00
0E00
0E00
0E00
0E00
0E00
0E00
ENDCHAR

STARTCHAR Z
ENCODING 90
SWIDTH 501 0
DWIDTH 11 0
BBX 9 14 1 0
BITMAP
7F80
7F80
0380
0700
0700
0E00
1C00
1C00
3800
7000
7000
E000
FF80
FF80
ENDCHAR

STARTCHAR bracketleft
ENCODING 91
SWIDTH 273 0
DWIDTH 5 0
BBX 3 18 1 -4
BITMAP
E0
E0
C0
C0
C0
C0
C0
C0
C0
C0
C0
C0
C0
C0
C0
C0
E0
E0
ENDCHAR

STARTCHAR backslash
ENCODING 92
SWIDTH 228 0
DWIDTH 6 0
BBX 5 14 0 0
BITMAP
C0
C0
C0
60
60
60
60
30
30
30
30
18
18
18
ENDCHAR

STARTCHAR bracketright
ENCODING 93
SWIDTH 273 0
DWIDTH 5 0
BBX 3 18 0 -4
BITMAP
E0
E0
60
60
60
60
60
60
60
60
60
60
60
60
60
60
E0
E0
ENDCHAR

STARTCHAR asciicircum
ENCODING 94
SWIDTH 479 0
DWIDTH 9 0
BBX 6 7 1 7
BITMAP
30
30
78
78
CC
CC
84
ENDCHAR

STARTCHAR underscore
ENCODING 95
SWIDTH 456 0
DWIDTH 9 0
BBX 9 2 0 -3
BITMAP
FF80
FF80
ENDCHAR

STARTCHAR quoteleft
ENCODING 96
SWIDTH 228 0
DWIDTH 4 0
BBX 3 6 1 8
BITMAP
60
C0
80
C0
C0
C0
ENDCHAR

STARTCHAR a
ENCODING 97
SWIDTH 456 0
DWIDTH 8 0
BBX 8 10 0 0
BITMAP
7C
FE
CE
1E
7E
EE
CE
CE
FE
77
ENDCHAR

STARTCHAR b
ENCODING 98
SWIDTH 501 0
DWIDTH 9 0
BBX 8 14 0 0
BITMAP
E0
E0
E0
E0
FC
FE
E7
E7
E7
E7
E7
E7
FE
DC
ENDCHAR

STARTCHAR c
ENCODING 99
SWIDTH 456 0
DWIDTH 8 0
BBX 7 10 0 0
BITMAP
3C
7E
E6
E0
E0
E0
E0
E6
7E
3C
ENDCHAR

STARTCHAR d
ENCODING 100
SWIDTH 501 0
DWIDTH 9 0
BBX 8 14 0 0
BITMAP
07
07
07
07
3F
7F
E7
E7
E7
E7
E7
E7
7F
3B
ENDCHAR

STARTCHAR e
ENCODING 101
SWIDTH 456 0
DWIDTH 8 0
BBX 7 10 0 0
BITMAP
38
7C
EE
C6
FE
FE
E0
E6
7E
3C
ENDCHAR

STARTCHAR f
ENCODING 102
SWIDTH 273 0
DWIDTH 6 0
BBX 5 14 0 0
BITMAP
38
78
70
70
F8
F8
70
70
70
70
70
70
70
70
ENDCHAR

STARTCHAR g
ENCODING 103
SWIDTH 501 0
DWIDTH 9 0
BBX 8 14 0 -4
BITMAP
3B
7F
E7
E7
E7
E7
E7
E7
7F
3F
07
C7
FE
7C
ENDCHAR

STARTCHAR h
ENCODING 104
SWIDTH 501 0
DWIDTH 9 0
BBX 8 14 0 0
BITMAP
E0
E0
E0
E0
EE
FF
F7
E7
E7
E7
E7
E7
E7
E7
ENDCHAR

STARTCHAR i
ENCODING 105
SWIDTH 228 0
DWIDTH 6 0
BBX 3 14 1 0
BITMAP
E0
E0
E0
00
E0
E0
E0
E0
E0
E0
E0
E0
E0
E0
ENDCHAR

STARTCHAR j
ENCODING 106
SWIDTH 228 0
DWIDTH 6 0
BBX 4 18 0 -4
BITMAP
70
70
70
00
70
70
70
70
70
70
70
70
70
70
70
70
F0
E0
ENDCHAR

STARTCHAR k
ENCODING 107
SWIDTH 456 0
DWIDTH 8 0
BBX 8 14 0 0
BITMAP
E0
E0
E0
E0
E7
EE
FC
F8
FC
FC
EE
EE
E7
E7
ENDCHAR

STARTCHAR l
ENCODING 108
SWIDTH 228 0
DWIDTH 6 0
BBX 3 14 1 0
BITMAP
E0
E0
E0
E0
E0
E0
E0
E0
E0
E0
E0
E0
E0
E0
ENDCHAR

STARTCHAR m
ENCODING 109
SWIDTH 729 0
DWIDTH 14 0
BBX 13 10 0 0
BITMAP
DEF0
FFF8
F7B8
E738
E738
E738
E738
E738
E738
E738
ENDCHAR

STARTCHAR n
ENCODING 110
SWIDTH 501 0
DWIDTH 9 0
BBX 8 10 0 0
BITMAP
DE
FF
F7
E7
E7
E7
E7
E7
E7
E7
ENDCHAR

STARTCHAR o
ENCODING 111
SWIDTH 501 0
DWIDTH 9 0
BBX 8 10 0 0
BITMAP
3C
7E
E7
E7
E7
E7
E7
E7
7E
3C
ENDCHAR

STARTCHAR p
ENCODING 112
SWIDTH 501 0
DWIDTH 9 0
BBX 8 14 0 -4
BITMAP
DC
FE
E7
E7
E7
E7
E7
E7
FE
FC
E0
E0
E0
E0
ENDCHAR

STARTCHAR q
ENCODING 113
SWIDTH 501 0
DWIDTH 9 0
BBX 8 14 0 -4
BITMAP
3B
7F
E7
E7
E7
E7
E7
E7
7F
3F
07
07
07
07
ENDCHAR

STARTCHAR r
ENCODING 114
SWIDTH 319 0
DWIDTH 7 0
BBX 5 10 1 0
BITMAP
D8
F8
F0
E0
E0
E0
E0
E0
E0
E0
ENDCHAR

STARTCHAR s
ENCODING 115
SWIDTH 456 0
DWIDTH 7 0
BBX 6 10 0 0
BITMAP
78
FC
CC
E0
F8
7C
1C
CC
FC
78
ENDCHAR

STARTCHAR t
ENCODING 116
SWIDTH 273 0
DWIDTH 6 0
BBX 5 13 0 0
BITMAP
70
70
70
F8
F8
70
70
70
70
70
70
78
38
ENDCHAR

STARTCHAR u
ENCODING 117
SWIDTH 501 0
DWIDTH 9 0
BBX 8 10 0 0
BITMAP
E7
E7
E7
E7
E7
E7
E7
EF
FF
7B
ENDCHAR

STARTCHAR v
ENCODING 118
SWIDTH 456 0
DWIDTH 8 0
BBX 9 10 -1 0
BITMAP
E380
E380
6300
7700
7700
3600
3E00
3E00
1C00
1C00
ENDCHAR

STARTCHAR w
ENCODING 119
SWIDTH 638 0
DWIDTH 10 0
BBX 11 10 -1 0
BITMAP
C660
C660
EEE0
6EC0
6EC0
7EC0
7BC0
3B80
3B80
3B80
ENDCHAR

STARTCHAR x
ENCODING 120
SWIDTH 456 0
DWIDTH 8 0
BBX 7 10 0 0
BITMAP
EE
EE
6C
7C
38
38
7C
6C
EE
EE
ENDCHAR

STARTCHAR y
ENCODING 121
SWIDTH 456 0
DWIDTH 7 0
BBX 8 14 -1 -4
BITMAP
E7
E7
66
66
7E
3C
3C
3C
18
18
38
30
F0
E0
ENDCHAR

STARTCHAR z
ENCODING 122
SWIDTH 410 0
DWIDTH 8 0
BBX 7 10 0 0
BITMAP
FE
FE
0E
1C
38
70
70
E0
FE
FE
ENDCHAR

STARTCHAR braceleft
ENCODING 123
SWIDTH 319 0
DWIDTH 6 0
BBX 6 18 0 -4
BITMAP
1C
38
30
30
30
30
30
60
C0
60
30
30
30
30
30
30
38
1C
ENDCHAR

STARTCHAR bar
ENCODING 124
SWIDTH 230 0
DWIDTH 4 0
BBX 2 17 1 -3
BITMAP
C0
C0
C0
C0
C0
C0
C0
C0
C0
C0
C0
C0
C0
C0
C0
C0
C0
ENDCHAR

STARTCHAR braceright
ENCODING 125
SWIDTH 319 0
DWIDTH 6 0
BBX 6 18 -1 -4
BITMAP
E0
70
30
30
30
30
30
18
0C
18
30
30
30
30
30
30
70
E0
ENDCHAR

STARTCHAR asciitilde
ENCODING 126
SWIDTH 479 0
DWIDTH 9 0
BBX 7 3 1 4
BITMAP
76
FE
DC
ENDCHAR

STARTCHAR exclamdown
ENCODING 161
SWIDTH 273 0
DWIDTH 5 0
BBX 2 14 1 -4
BITMAP
C0
C0
C0
00
C0
C0
C0
C0
C0
C0
C0
C0
C0
C0
ENDCHAR

STARTCHAR cent
ENCODING 162
SWIDTH 456 0
DWIDTH 9 0
BBX 8 14 0 -2
BITMAP
03
03
3E
7F
E7
EC
EC
E8
F8
FB
7F
3E
60
60
ENDCHAR

STARTCHAR sterling
ENCODING 163
SWIDTH 456 0
DWIDTH 9 0
BBX 9 14 0 0
BITMAP
3C00
7E00
E700
E300
E000
7000
FE00
FE00
3800
3800
3800
7C00
FF80
E700
ENDCHAR

STARTCHAR currency
ENCODING 164
SWIDTH 456 0
DWIDTH 9 0
BBX 8 9 0 2
BITMAP
C3
FF
66
C3
C3
C3
66
FF
C3
ENDCHAR

STARTCHAR yen
ENCODING 165
SWIDTH 456 0
DWIDTH 9 0
BBX 11 14 -1 0
BITMAP
E0E0
71C0
71C0
3B80
3B80
1F00
1F00
7FC0
7FC0
0E00
7FC0
7FC0
0E00
0E00
ENDCHAR

STARTCHAR brokenbar
ENCODING 166
SWIDTH 230 0
DWIDTH 4 0
BBX 2 17 1 -3
BITMAP
C0
C0
C0
C0
C0
C0
C0
00
00
00
C0
C0
C0
C0
C0
C0
C0
ENDCHAR

STARTCHAR section
ENCODING 167
SWIDTH 456 0
DWIDTH 9 0
BBX 8 18 0 -4
BITMAP
3C
7E
E7
E3
F0
78
7C
CE
C7
E3
73
3E
1E
0F
C7
E7
7E
3C
ENDCHAR

STARTCHAR dieresis
ENCODING 168
SWIDTH 273 0
DWIDTH 5 0
BBX 5 2 0 11
BITMAP
D8
D8
ENDCHAR

STARTCHAR copyright
ENCODING 169
SWIDTH 604 0
DWIDTH 15 0
BBX 14 14 0 0
BITMAP
0FC0
3FF0
7038
6798
CFCC
DCCC
D80C
D80C
DCCC
CFCC
6798
7038
3FF0
0FC0
ENDCHAR

STARTCHAR ordfeminine
ENCODING 170
SWIDTH 303 0
DWIDTH 6 0
BBX 5 8 0 6
BITMAP
70
D8
78
D8
D8
E8
00
F8
ENDCHAR

STARTCHAR guillemotleft
ENCODING 171
SWIDTH 456 0
DWIDTH 8 0
BBX 7 6 0 2
BITMAP
36
6C
D8
D8
6C
36
ENDCHAR

STARTCHAR logicalnot
ENCODING 172
SWIDTH 479 0
DWIDTH 11 0
BBX 8 5 1 3
BITMAP
FF
FF
03
03
03
ENDCHAR

STARTCHAR hyphen
ENCODING 173
SWIDTH 273 0
DWIDTH 5 0
BBX 4 2 0 4
BITMAP
F0
F0
ENDCHAR

STARTCHAR registered
ENCODING 174
SWIDTH 604 0
DWIDTH 15 0
BBX 14 14 0 0
BITMAP
0FC0
3FF0
7038
6F98
CFCC
CCCC
CCCC
CFCC
CF8C
CCCC
6CD8
7038
3FF0
0FC0
ENDCHAR

STARTCHAR macron
ENCODING 175
SWIDTH 273 0
DWIDTH 5 0
BBX 5 2 0 11
BITMAP
F8
F8
ENDCHAR

STARTCHAR degree
ENCODING 176
SWIDTH 328 0
DWIDTH 7 0
BBX 5 5 1 9
BITMAP
70
D8
88
D8
70
ENDCHAR

STARTCHAR plusminus
ENCODING 177
SWIDTH 479 0
DWIDTH 9 0
BBX 8 11 0 1
BITMAP
18
18
18
FF
FF
18
18
18
00
FF
FF
ENDCHAR

STARTCHAR twosuperior
ENCODING 178
SWIDTH 273 0
DWIDTH 6 0
BBX 5 8 0 6
BITMAP
70
D8
98
18
30
60
C0
F8
ENDCHAR

STARTCHAR threesuperior
ENCODING 179
SWIDTH 273 0
DWIDTH 6 0
BBX 5 8 0 6
BITMAP
70
D8
98
30
18
98
D8
70
ENDCHAR

STARTCHAR acute
ENCODING 180
SWIDTH 273 0
DWIDTH 6 0
BBX 5 3 1 11
BITMAP
38
70
C0
ENDCHAR

STARTCHAR mu
ENCODING 181
SWIDTH 501 0
DWIDTH 9 0
BBX 8 14 0 -4
BITMAP
E7
E7
E7
E7
E7
E7
E7
EF
FF
FB
E0
E0
E0
E0
ENDCHAR

STARTCHAR paragraph
ENCODING 182
SWIDTH 456 0
DWIDTH 9 0
BBX 9 18 0 -4
BITMAP
3F80
7F80
FB00
FB00
FB00
FB00
7B00
3B00
1B00
1B00
1B00
1B00
1B00
1B00
1B00
1B00
1B00
1B00
ENDCHAR

STARTCHAR periodcentered
ENCODING 183
SWIDTH 228 0
DWIDTH 4 0
BBX 2 2 1 6
BITMAP
C0
C0
ENDCHAR

STARTCHAR cedilla
ENCODING 184
SWIDTH 273 0
DWIDTH 5 0
BBX 4 4 0 -4
BITMAP
20
70
30
E0
ENDCHAR

STARTCHAR onesuperior
ENCODING 185
SWIDTH 273 0
DWIDTH 6 0
BBX 4 8 0 6
BITMAP
30
F0
30
30
30
30
30
30
ENDCHAR

STARTCHAR ordmasculine
ENCODING 186
SWIDTH 299 0
DWIDTH 6 0
BBX 5 8 0 6
BITMAP
70
F8
D8
D8
F8
70
00
F8
ENDCHAR

STARTCHAR guillemotright
ENCODING 187
SWIDTH 456 0
DWIDTH 8 0
BBX 7 6 0 2
BITMAP
D8
6C
36
36
6C
D8
ENDCHAR

STARTCHAR onequarter
ENCODING 188
SWIDTH 684 0
DWIDTH 13 0
BBX 13 14 -1 0
BITMAP
3020
F060
3040
30C0
3080
3180
3110
3330
0270
06B0
0530
0DF8
0830
1830
ENDCHAR

STARTCHAR onehalf
ENCODING 189
SWIDTH 684 0
DWIDTH 13 0
BBX 13 14 -1 0
BITMAP
3020
F060
3040
30C0
3080
3180
3170
33D8
0298
0618
0430
0C60
08C0
18F8
ENDCHAR

STARTCHAR threequarters
ENCODING 190
SWIDTH 684 0
DWIDTH 13 0
BBX 12 14 0 0
BITMAP
7040
D8C0
9880
3180
1900
9B00
DA20
7660
04E0
0D60
0A60
1BF0
1060
3060
ENDCHAR

STARTCHAR questiondown
ENCODING 191
SWIDTH 501 0
DWIDTH 9 0
BBX 7 14 1 -4
BITMAP
18
18
18
00
18
18
38
30
70
E0
EE
EE
FE
7C
ENDCHAR

STARTCHAR Agrave
ENCODING 192
SWIDTH 592 0
DWIDTH 11 0
BBX 11 14 0 0
BITMAP
1C00
0E00
0300
0000
0E00
0E00
1B00
1B00
3180
3F80
7FC0
71C0
E0E0
E0E0
ENDCHAR

STARTCHAR Aacute
ENCODING 193
SWIDTH 592 0
DWIDTH 11 0
BBX 11 14 0 0
BITMAP
0700
0E00
1800
0000
0E00
0E00
1B00
1B00
3180
3F80
7FC0
71C0
E0E0
E0E0
ENDCHAR

STARTCHAR Acircumflex
ENCODING 194
SWIDTH 592 0
DWIDTH 11 0
BBX 11 14 0 0
BITMAP
0C00
1E00
3300
0000
0E00
0E00
1B00
1B00
3180
3F80
7FC0
71C0
E0E0
E0E0
ENDCHAR

STARTCHAR Atilde
ENCODING 195
SWIDTH 592 0
DWIDTH 11 0
BBX 11 14 0 0
BITMAP
0C80
1F80
1300
0000
0E00
0E00
1B00
1B00
3180
3F80
7FC0
71C0
E0E0
E0E0
ENDCHAR

STARTCHAR Adieresis
ENCODING 196
SWIDTH 592 0
DWIDTH 11 0
BBX 11 13 0 0
BITMAP
1B00
1B00
0000
0E00
0E00
1B00
1B00
3180
3F80
7FC0
71C0
E0E0
E0E0
ENDCHAR

STARTCHAR Aring
ENCODING 197
SWIDTH 592 0
DWIDTH 11 0
BBX 11 14 0 0
BITMAP
0E00
1B00
1B00
0E00
0E00
0E00
1B00
1B00
3180
3F80
7FC0
71C0
E0E0
E0E0
ENDCHAR

STARTCHAR AE
ENCODING 198
SWIDTH 820 0
DWIDTH 15 0
BBX 14 14 0 0
BITMAP
0FFC
0FFC
1F80
1F80
1B80
3B80
3BF8
33F8
7380
7F80
7F80
E380
E3FC
E3FC
ENDCHAR

STARTCHAR Ccedilla
ENCODING 199
SWIDTH 592 0
DWIDTH 11 0
BBX 9 18 1 -4
BITMAP
1E00
7F00
7380
E380
E380
E000
E000
E000
E000
E380
E380
7380
7F00
1E00
0800
1C00
0C00
3800
ENDCHAR

STARTCHAR Egrave
ENCODING 200
SWIDTH 547 0
DWIDTH 10 0
BBX 8 14 1 0
BITMAP
70
38
0C
00
FF
FF
E0
E0
FE
FE
E0
E0
FF
FF
ENDCHAR

STARTCHAR Eacute
ENCODING 201
SWIDTH 547 0
DWIDTH 10 0
BBX 8 14 1 0
BITMAP
0E
1C
30
00
FF
FF
E0
E0
FE
FE
E0
E0
FF
FF
ENDCHAR

STARTCHAR Ecircumflex
ENCODING 202
SWIDTH 547 0
DWIDTH 10 0
BBX 8 14 1 0
BITMAP
18
3C
66
00
FF
FF
E0
E0
FE
FE
E0
E0
FF
FF
ENDCHAR

STARTCHAR Edieresis
ENCODING 203
SWIDTH 547 0
DWIDTH 10 0
BBX 8 13 1 0
BITMAP
36
36
00
FF
FF
E0
E0
FE
FE
E0
E0
FF
FF
ENDCHAR

STARTCHAR Igrave
ENCODING 204
SWIDTH 228 0
DWIDTH 7 0
BBX 5 14 1 0
BITMAP
E0
70
18
00
70
70
70
70
70
70
70
70
70
70
ENDCHAR

STARTCHAR Iacute
ENCODING 205
SWIDTH 228 0
DWIDTH 7 0
BBX 5 14 1 0
BITMAP
38
70
C0
00
70
70
70
70
70
70
70
70
70
70
ENDCHAR

STARTCHAR Icircumflex
ENCODING 206
SWIDTH 228 0
DWIDTH 7 0
BBX 6 14 0 0
BITMAP
30
78
CC
00
38
38
38
38
38
38
38
38
38
38
ENDCHAR

STARTCHAR Idieresis
ENCODING 207
SWIDTH 228 0
DWIDTH 6 0
BBX 5 13 0 0
BITMAP
D8
D8
00
70
70
70
70
70
70
70
70
70
70
ENDCHAR

STARTCHAR Eth
ENCODING 208
SWIDTH 592 0
DWIDTH 11 0
BBX 11 14 -1 0
BITMAP
3F00
3FC0
39C0
38E0
38E0
38E0
FEE0
FEE0
38E0
38E0
38E0
39C0
3FC0
3F00
ENDCHAR

STARTCHAR Ntilde
ENCODING 209
SWIDTH 592 0
DWIDTH 11 0
BBX 9 14 1 0
BITMAP
1900
3F00
2600
0000
E380
F380
F380
FB80
FB80
EF80
EF80
E780
E780
E380
ENDCHAR

STARTCHAR Ograve
ENCODING 210
SWIDTH 638 0
DWIDTH 12 0
BBX 10 14 1 0
BITMAP
3800
1C00
0600
0000
1E00
7F80
7380
E1C0
E1C0
E1C0
E1C0
7380
7F80
1E00
ENDCHAR

STARTCHAR Oacute
ENCODING 211
SWIDTH 638 0
DWIDTH 12 0
BBX 10 14 1 0
BITMAP
0700
0E00
1800
0000
1E00
7F80
7380
E1C0
E1C0
E1C0
E1C0
7380
7F80
1E00
ENDCHAR

STARTCHAR Ocircumflex
ENCODING 212
SWIDTH 638 0
DWIDTH 12 0
BBX 10 14 1 0
BITMAP
0C00
1E00
3300
0000
1E00
7F80
7380
E1C0
E1C0
E1C0
E1C0
7380
7F80
1E00
ENDCHAR

STARTCHAR Otilde
ENCODING 213
SWIDTH 638 0
DWIDTH 12 0
BBX 10 14 1 0
BITMAP
1900
3F00
2600
0000
1E00
7F80
7380
E1C0
E1C0
E1C0
E1C0
7380
7F80
1E00
ENDCHAR

STARTCHAR Odieresis
ENCODING 214
SWIDTH 638 0
DWIDTH 12 0
BBX 10 13 1 0
BITMAP
3600
3600
0000
1E00
7F80
7380
E1C0
E1C0
E1C0
E1C0
7380
7F80
1E00
ENDCHAR

STARTCHAR multiply
ENCODING 215
SWIDTH 479 0
DWIDTH 9 0
BBX 8 9 0 0
BITMAP
42
E7
7E
3C
18
3C
7E
E7
42
ENDCHAR

STARTCHAR Oslash
ENCODING 216
SWIDTH 638 0
DWIDTH 12 0
BBX 10 14 1 0
BITMAP
1EC0
7FC0
7380
E7C0
E7C0
EDC0
EDC0
EDC0
F9C0
F9C0
F1C0
7380
FF80
DE00
ENDCHAR

STARTCHAR Ugrave
ENCODING 217
SWIDTH 592 0
DWIDTH 11 0
BBX 9 14 1 0
BITMAP
7000
3800
0C00
0000
E380
E380
E380
E380
E380
E380
E380
E380
7F00
3E00
ENDCHAR

STARTCHAR Uacute
ENCODING 218
SWIDTH 592 0
DWIDTH 11 0
BBX 9 14 1 0
BITMAP
0700
0E00
1800
0000
E380
E380
E380
E380
E380
E380
E380
E380
7F00
3E00
ENDCHAR

STARTCHAR Ucircumflex
ENCODING 219
SWIDTH 592 0
DWIDTH 11 0
BBX 9 14 1 0
BITMAP
1800
3C00
6600
0000
E380
E380
E380
E380
E380
E380
E380
E380
7F00
3E00
ENDCHAR

STARTCHAR Udieresis
ENCODING 220
SWIDTH 592 0
DWIDTH 11 0
BBX 9 13 1 0
BITMAP
3600
3600
0000
E380
E380
E380
E380
E380
E380
E380
E380
7F00
3E00
ENDCHAR

STARTCHAR Yacute
ENCODING 221
SWIDTH 547 0
DWIDTH 11 0
BBX 11 14 0 0
BITMAP
0380
0700
0C00
0000
E0E0
71C0
71C0
3B80
1F00
1F00
0E00
0E00
0E00
0E00
ENDCHAR

STARTCHAR Thorn
ENCODING 222
SWIDTH 547 0
DWIDTH 10 0
BBX 9 14 1 0
BITMAP
E000
E000
E000
FE00
FF00
E780
E380
E380
E780
FF00
FE00
E000
E000
E000
ENDCHAR

STARTCHAR germandbls
ENCODING 223
SWIDTH 501 0
DWIDTH 9 0
BBX 8 14 0 0
BITMAP
3C
7E
E7
E7
E7
EE
EC
E6
E7
E7
E7
E7
EE
EC
ENDCHAR

STARTCHAR agrave
ENCODING 224
SWIDTH 456 0
DWIDTH 8 0
BBX 8 14 0 0
BITMAP
70
38
0C
00
7C
FE
CE
1E
7E
EE
CE
CE
FE
77
ENDCHAR

STARTCHAR aacute
ENCODING 225
SWIDTH 456 0
DWIDTH 8 0
BBX 8 14 0 0
BITMAP
1C
38
60
00
7C
FE
CE
1E
7E
EE
CE
CE
FE
77
ENDCHAR

STARTCHAR acircumflex
ENCODING 226
SWIDTH 456 0
DWIDTH 8 0
BBX 8 14 0 0
BITMAP
30
78
CC
00
7C
FE
CE
1E
7E
EE
CE
CE
FE
77
ENDCHAR

STARTCHAR atilde
ENCODING 227
SWIDTH 456 0
DWIDTH 8 0
BBX 8 14 0 0
BITMAP
32
7E
4C
00
7C
FE
CE
1E
7E
EE
CE
CE
FE
77
ENDCHAR

STARTCHAR adieresis
ENCODING 228
SWIDTH 456 0
DWIDTH 8 0
BBX 8 13 0 0
BITMAP
6C
6C
00
7C
FE
CE
1E
7E
EE
CE
CE
FE
77
ENDCHAR

STARTCHAR aring
ENCODING 229
SWIDTH 456 0
DWIDTH 8 0
BBX 8 14 0 0
BITMAP
38
6C
6C
38
7C
FE
CE
1E
7E
EE
CE
CE
FE
77
ENDCHAR

STARTCHAR ae
ENCODING 230
SWIDTH 729 0
DWIDTH 13 0
BBX 12 10 0 0
BITMAP
79C0
FFE0
CF70
1E30
7FF0
EFF0
CE00
CE70
FFF0
73E0
ENDCHAR

STARTCHAR ccedilla
ENCODING 231
SWIDTH 456 0
DWIDTH 8 0
BBX 7 14 0 -4
BITMAP
3C
7E
E6
E0
E0
E0
E0
E6
7E
3C
10
38
18
70
ENDCHAR

STARTCHAR egrave
ENCODING 232
SWIDTH 456 0
DWIDTH 8 0
BBX 7 14 0 0
BITMAP
70
38
0C
00
38
7C
EE
C6
FE
FE
E0
E6
7E
3C
ENDCHAR

STARTCHAR eacute
ENCODING 233
SWIDTH 456 0
DWIDTH 8 0
BBX 7 14 0 0
BITMAP
1C
38
60
00
38
7C
EE
C6
FE
FE
E0
E6
7E
3C
ENDCHAR

STARTCHAR ecircumflex
ENCODING 234
SWIDTH 456 0
DWIDTH 8 0
BBX 7 14 0 0
BITMAP
30
78
CC
00
38
7C
EE
C6
FE
FE
E0
E6
7E
3C
ENDCHAR

STARTCHAR edieresis
ENCODING 235
SWIDTH 456 0
DWIDTH 8 0
BBX 7 13 0 0
BITMAP
6C
6C
00
38
7C
EE
C6
FE
FE
E0
E6
7E
3C
ENDCHAR

STARTCHAR igrave
ENCODING 236
SWIDTH 228 0
DWIDTH 6 0
BBX 5 14 0 0
BITMAP
E0
70
18
00
70
70
70
70
70
70
70
70
70
70
ENDCHAR

STARTCHAR iacute
ENCODING 237
SWIDTH 228 0
DWIDTH 6 0
BBX 5 14 0 0
BITMAP
38
70
C0
00
70
70
70
70
70
70
70
70
70
70
ENDCHAR

STARTCHAR icircumflex
ENCODING 238
SWIDTH 228 0
DWIDTH 6 0
BBX 6 14 0 0
BITMAP
30
78
CC
00
70
70
70
70
70
70
70
70
70
70
ENDCHAR

STARTCHAR idieresis
ENCODING 239
SWIDTH 228 0
DWIDTH 6 0
BBX 5 13 0 0
BITMAP
D8
D8
00
70
70
70
70
70
70
70
70
70
70
ENDCHAR

STARTCHAR eth
ENCODING 240
SWIDTH 501 0
DWIDTH 9 0
BBX 8 14 0 0
BITMAP
C8
70
70
98
3C
7E
E7
E7
E7
E7
E7
E7
7E
3C
ENDCHAR

STARTCHAR ntilde
ENCODING 241
SWIDTH 501 0
DWIDTH 9 0
BBX 8 14 0 0
BITMAP
32
7E
4C
00
DE
FF
F7
E7
E7
E7
E7
E7
E7
E7
ENDCHAR

STARTCHAR ograve
ENCODING 242
SWIDTH 501 0
DWIDTH 9 0
BBX 8 14 0 0
BITMAP
70
38
0C
00
3C
7E
E7
E7
E7
E7
E7
E7
7E
3C
ENDCHAR

STARTCHAR oacute
ENCODING 243
SWIDTH 501 0
DWIDTH 9 0
BBX 8 14 0 0
BITMAP
0E
1C
30
00
3C
7E
E7
E7
E7
E7
E7
E7
7E
3C
ENDCHAR

STARTCHAR ocircumflex
ENCODING 244
SWIDTH 501 0
DWIDTH 9 0
BBX 8 14 0 0
BITMAP
18
3C
66
00
3C
7E
E7
E7
E7
E7
E7
E7
7E
3C
ENDCHAR

STARTCHAR otilde
ENCODING 245
SWIDTH 501 0
DWIDTH 9 0
BBX 8 14 0 0
BITMAP
32
7E
4C
00
3C
7E
E7
E7
E7
E7
E7
E7
7E
3C
ENDCHAR

STARTCHAR odieresis
ENCODING 246
SWIDTH 501 0
DWIDTH 9 0
BBX 8 13 0 0
BITMAP
6C
6C
00
3C
7E
E7
E7
E7
E7
E7
E7
7E
3C
ENDCHAR

STARTCHAR divide
ENCODING 247
SWIDTH 479 0
DWIDTH 9 0
BBX 8 8 0 1
BITMAP
18
18
00
FF
FF
00
18
18
ENDCHAR

STARTCHAR oslash
ENCODING 248
SWIDTH 501 0
DWIDTH 9 0
BBX 8 10 0 0
BITMAP
3B
7E
E7
EF
FF
F7
E7
E7
7E
DC
ENDCHAR

STARTCHAR ugrave
ENCODING 249
SWIDTH 501 0
DWIDTH 9 0
BBX 8 14 0 0
BITMAP
70
38
0C
00
E7
E7
E7
E7
E7
E7
E7
EF
FF
7B
ENDCHAR

STARTCHAR uacute
ENCODING 250
SWIDTH 501 0
DWIDTH 9 0
BBX 8 14 0 0
BITMAP
0E
1C
30
00
E7
E7
E7
E7
E7
E7
E7
EF
FF
7B
ENDCHAR

STARTCHAR ucircumflex
ENCODING 251
SWIDTH 501 0
DWIDTH 9 0
BBX 8 14 0 0
BITMAP
18
3C
66
00
E7
E7
E7
E7
E7
E7
E7
EF
FF
7B
ENDCHAR

STARTCHAR udieresis
ENCODING 252
SWIDTH 501 0
DWIDTH 9 0
BBX 8 13 0 0
BITMAP
6C
6C
00
E7
E7
E7
E7
E7
E7
E7
EF
FF
7B
ENDCHAR

STARTCHAR yacute
ENCODING 253
SWIDTH 456 0
DWIDTH 7 0
BBX 8 18 -1 -4
BITMAP
0E
1C
30
00
E7
E7
66
66
7E
3C
3C
3C
18
18
38
30
F0
E0
ENDCHAR

STARTCHAR thorn
ENCODING 254
SWIDTH 501 0
DWIDTH 9 0
BBX 8 18 0 -4
BITMAP
E0
E0
E0
E0
FC
FE
E7
E7
E7
E7
E7
E7
FE
FC
E0
E0
E0
E0
ENDCHAR

STARTCHAR ydieresis
ENCODING 255
SWIDTH 456 0
DWIDTH 7 0
BBX 8 17 -1 -4
BITMAP
6C
6C
00
E7
E7
66
66
7E
3C
3C
3C
18
18
38
30
F0
E0
ENDCHAR
ENDFONT
